HIERARCHY
ROOT hip
{
	OFFSET 0.000000 0.000000 0.000000 
	CHANNELS 6 Xposition Yposition Zposition Xrotation Zrotation Yrotation
	JOINT abdomen
	{
		OFFSET 0.000000 3.402643 0.000000 
		CHANNELS 3 Xrotation Zrotation Yrotation
		JOINT chest
		{
			OFFSET 0.000000 8.438565 -0.680529 
			CHANNELS 3 Xrotation Zrotation Yrotation
			JOINT neck
			{
				OFFSET 0.000000 10.207942 -0.272212 
				CHANNELS 3 Xrotation Zrotation Yrotation
				JOINT head
				{
					OFFSET 0.000000 3.130431 0.000000 
					CHANNELS 3 Xrotation Zrotation Yrotation
					End Site
					{
						OFFSET 0.000000 3.130435 0.000000 
					}
				}
			}
			JOINT lCollar
			{
				OFFSET 3.470700 6.669187 -0.816635 
				CHANNELS 3 Yrotation Zrotation Xrotation
				JOINT lShldr
				{
					OFFSET 3.198488 0.000000 0.000000 
					CHANNELS 3 Zrotation Yrotation Xrotation
					JOINT lForeArm
					{
						OFFSET 10.139888 0.000000 0.000000 
						CHANNELS 3 Yrotation Zrotation Xrotation
						JOINT lHand
						{
							OFFSET 8.370511 0.000000 0.000000 
							CHANNELS 3 Zrotation Yrotation Xrotation
							End Site
							{
								OFFSET 4.083176 0.000000 0.000000 
							}
						}
					}
				}
			}
			JOINT rCollar
			{
				OFFSET -3.470700 6.669187 -0.816635 
				CHANNELS 3 Yrotation Zrotation Xrotation
				JOINT rShldr
				{
					OFFSET -3.198488 0.000000 0.000000 
					CHANNELS 3 Zrotation Yrotation Xrotation
					JOINT rForeArm
					{
						OFFSET -10.139888 0.000000 0.000000 
						CHANNELS 3 Yrotation Zrotation Xrotation
						JOINT rHand
						{
							OFFSET -8.370511 0.000000 0.000000 
							CHANNELS 3 Zrotation Yrotation Xrotation
							End Site
							{
								OFFSET -4.083176 0.000000 0.000000 
							}
						}
					}
				}
			}
		}
	}
	JOINT lThigh
	{
		OFFSET 5.308129 -1.633274 1.361059 
		CHANNELS 3 Xrotation Zrotation Yrotation
		JOINT lShin
		{
			OFFSET -2.041588 -20.007561 0.000000 
			CHANNELS 3 Xrotation Zrotation Yrotation
			JOINT lFoot
			{
				OFFSET 0.000000 -19.190928 -1.224953 
				CHANNELS 3 Xrotation Yrotation Zrotation
				End Site
				{
					OFFSET 0.000000 -2.449906 4.627600 
				}
			}
		}
	}
	JOINT rThigh
	{
		OFFSET -5.308129 -1.633274 1.361059 
		CHANNELS 3 Xrotation Zrotation Yrotation
		JOINT rShin
		{
			OFFSET 2.041588 -20.007561 0.000000 
			CHANNELS 3 Xrotation Zrotation Yrotation
			JOINT rFoot
			{
				OFFSET 0.000000 -19.190928 -1.224953 
				CHANNELS 3 Xrotation Yrotation Zrotation
				End Site
				{
					OFFSET 0.000000 -2.449906 4.627600 
				}
			}
		}
	}
}
MOTION
Frames: 11
Frame Time: 0.033333
48.176105 35.739738 19.047470 -12.988280 9.492188 -69.851898 10.370376 -8.712459 -6.345483 -5.576171 15.253907 4.455694 -5.738024 -13.384437 -31.831905 -10.283204 -14.746092 -30.302734 2.000000 -2.000000 0.000000 -90.722656 -73.144531 6.962892 -8.786345 -1.090437 2.475136 -12.738910 -28.639889 37.798424 -2.000000 2.000000 0.000000 24.990234 -3.857422 -25.635424 52.877224 0.680254 2.949191 -4.144210 0.553982 -3.627480 11.773392 5.233223 6.002712 46.405373 -2.634146 6.607737 -46.309143 14.130676 -28.907717 -75.533508 -24.589676 17.555990 66.316483 1.111539 -51.019146 8.599378 -20.069168 5.591128 
45.424797 35.866341 19.471563 -12.197266 9.140625 -80.193756 10.370376 -8.712459 -6.345483 -7.480468 20.625002 3.147971 -6.752831 -11.561520 -27.783506 -12.783204 -16.337889 -24.628910 2.000000 -2.000000 0.000000 -82.207031 -67.119141 0.020300 -29.046118 -0.845316 2.646168 -0.120839 -20.265772 25.854977 -2.000000 2.000000 0.000000 14.902344 1.386719 -26.161873 49.020863 0.702696 2.901642 -3.680996 2.313227 -1.177703 13.963301 3.925969 5.345391 50.417660 -2.476886 5.334628 -24.989916 5.327159 -33.675064 -75.820335 -18.339558 12.966516 70.357773 0.815983 -50.907410 2.106284 -12.266971 6.469873 
41.904968 36.323395 19.649126 -14.423828 3.505860 -93.768936 10.370376 -8.712459 -6.345483 -1.953124 21.347658 4.427383 -7.663838 -9.064132 -21.803463 -13.320315 -14.921875 -18.339846 2.000000 -2.000000 0.000000 -71.630859 -61.689457 -7.586724 -34.757530 -0.792457 2.711442 12.781072 -18.222734 21.271469 -2.000000 2.000000 0.000000 5.107422 8.466797 -29.687500 43.690529 0.736653 2.825444 -0.778320 4.973356 -0.449158 15.968707 -1.648556 4.611551 52.537418 -2.409837 -5.772028 16.477442 -6.696328 -28.324518 -70.545380 -13.710768 8.550169 73.852760 0.589819 -50.857334 -7.060635 -2.055690 6.912144 
38.293652 36.973503 19.088877 -14.628906 -1.708984 -107.529587 10.370376 -8.712459 -6.345483 2.783204 21.933594 5.579820 -8.108801 -7.200943 -17.555769 -13.193360 -15.722655 -13.037110 2.000000 -2.000000 0.000000 -60.117188 -51.308598 -16.374809 -30.266388 -0.844139 2.665659 11.002864 -18.261919 21.085039 -2.000000 2.000000 0.000000 0.087891 13.896485 -31.699219 42.753460 0.737830 2.805953 -3.777806 5.330539 -1.290512 11.957864 -4.977241 8.938159 64.694016 -1.787431 -23.754461 7.055145 -1.522752 -24.128296 -63.984665 -9.520940 4.402616 76.177658 0.426321 -41.174278 -16.522768 -1.966198 5.928158 
35.597466 37.468819 18.597458 -16.552734 -3.281250 -119.335930 10.370376 -8.712459 -6.345483 3.593751 20.322266 5.921360 -8.519810 -5.704464 -13.971069 -13.095705 -13.496094 -9.931641 2.000000 -2.000000 0.000000 -51.582035 -47.744141 -29.130859 -4.528854 -1.189092 2.461533 12.971894 -27.479046 28.685093 -2.000000 2.000000 0.000000 -0.986328 16.259768 -36.943356 45.174477 0.725727 2.844346 -4.619609 2.446834 -2.239347 -4.891458 -4.931234 15.477192 82.944168 -0.352234 -10.098347 -2.869437 1.119461 -34.938427 -62.221542 -7.958374 2.922433 77.759621 0.310335 -28.901041 -23.952547 -2.608142 2.150731 
32.784496 38.440578 17.483368 -15.878907 -9.472656 -129.863281 10.370376 -8.712459 -6.345483 8.974611 16.220705 7.317181 -8.528779 -4.831662 -11.527225 -12.470704 -11.220702 -8.310547 2.000000 -2.000000 0.000000 -43.271481 -46.884769 -37.233688 3.195293 -1.337074 2.441127 10.696802 -16.614506 27.601061 -2.000000 2.000000 0.000000 2.968750 12.470704 -36.404144 51.608116 0.691180 2.930289 -2.762147 2.159145 -2.217195 -18.115007 1.269799 14.456969 96.096756 0.643699 -9.015091 -11.877027 1.317466 -14.681693 -54.201408 -8.866278 2.808004 77.786629 0.378632 -18.592300 -30.205166 -2.037528 -1.543438 
30.120398 39.468338 15.971491 -13.994140 -19.277344 -138.059875 10.370376 -8.712459 -6.345483 14.785157 8.281250 8.311954 -8.229071 -5.207324 -11.530920 -9.863284 -9.248046 -9.658204 2.000000 -2.000000 0.000000 -32.822266 -53.300781 -51.845707 3.126893 -1.307830 2.439362 9.910778 -3.906562 37.976902 -2.000000 2.000000 0.000000 9.130859 0.156250 -31.113281 65.098907 0.647191 3.172161 -3.623530 -4.258902 -9.984703 -28.200933 10.672606 11.744880 105.247337 1.305636 -10.987935 -15.237201 0.093630 -14.775044 -44.268181 -14.480557 4.886601 77.820160 0.409843 -10.216989 -35.293579 -0.919235 -4.398280 
27.596994 40.960587 14.569599 -14.257813 -26.552734 -142.006317 10.370376 -8.712459 -6.345483 15.957031 1.503906 8.232422 -8.092695 -5.778640 -11.990227 -7.636720 -9.257812 -10.634768 2.000000 -2.000000 0.000000 -24.716797 -62.832031 -59.618065 3.136672 -1.317578 2.439950 12.939139 -13.620860 35.611515 -2.000000 2.000000 0.000000 14.951171 -21.757813 -36.416016 84.739944 0.704491 3.518088 -0.915788 -9.577413 -16.181776 -42.921490 22.377687 4.953848 109.496788 1.627018 -9.566713 -17.240332 -1.786812 -12.227567 -37.189034 -22.857639 7.286418 75.737389 0.546438 -5.800792 -38.795815 0.111984 -4.160120 
25.055719 43.430256 12.567062 -9.472655 -34.970703 -149.146225 10.370376 -8.712459 -6.345483 20.166019 -4.707032 8.114432 -7.856489 -6.191094 -12.176110 -4.716798 -8.281249 -11.630860 2.000000 -2.000000 0.000000 7.724610 -74.980469 -83.173492 3.117127 -1.307830 2.439361 6.701359 -27.251614 34.799839 -2.000000 2.000000 0.000000 16.962891 -43.662109 -50.426666 92.110054 0.744944 3.657478 0.650910 -13.289667 -22.295473 -50.457500 36.961895 -1.106992 104.906372 1.374432 -0.300058 -20.324665 -3.298707 -6.030892 -24.284826 -32.937344 5.634747 68.120544 1.153753 3.266591 -39.184029 1.858935 -6.713988 
23.190228 46.639877 10.965959 -10.253906 -37.802734 -150.582169 10.370376 -8.712459 -6.345483 18.378904 -7.666016 7.900390 -7.791245 -6.898265 -13.428231 -1.484376 -1.064453 -15.654299 2.000000 -2.000000 0.000000 -71.367188 -107.578125 -3.485872 -1.794892 -1.209763 2.443220 3.556944 -30.145712 38.611607 -2.000000 2.000000 0.000000 34.667973 -62.304684 -76.160988 90.206390 0.727224 3.627060 -2.817094 -18.671078 -25.971233 -62.310642 46.365086 -7.121038 85.550705 0.031148 7.785097 -19.275295 -2.619881 -4.115251 -13.425958 -40.374180 -1.225359 53.965523 2.197822 8.940582 -34.634380 2.159162 -7.321321 
21.933680 51.475021 9.076678 -9.833984 -40.322266 -154.527802 10.370376 -8.712459 -6.345483 17.519535 -10.917969 7.761823 -7.677452 -7.611070 -14.590286 -0.283204 6.210938 -19.335939 2.000000 -2.000000 0.000000 -39.052738 -126.601563 -29.580074 -13.951592 -0.990607 2.508230 -1.568249 -27.851089 45.579830 -2.000000 2.000000 0.000000 72.646484 -65.605469 -97.567482 80.971687 0.678796 3.457843 -20.129221 -17.318434 -19.715992 -47.973606 51.822002 -1.935459 39.946442 -2.970317 4.386107 -16.502649 -1.166739 -7.617386 19.452015 -40.370529 -30.379274 7.766385 4.096578 19.670029 -13.829916 0.317584 -5.460087 
